<?xml version="1.0" encoding="UTF-8" standalone="no"?>
<!-- Created with Inkscape (http://www.inkscape.org/) -->

<svg
   width="45.61351mm"
   height="130.52477mm"
   viewBox="0 0 45.61351 130.52477"
   version="1.1"
   id="svg326"
   xmlns="http://www.w3.org/2000/svg"
   xmlns:svg="http://www.w3.org/2000/svg">
  <defs
     id="defs323" />
  <g
     id="layer1"
     transform="translate(-105.51966,-110.13573)">
    <path
       id="path14259"
       style="fill:none;stroke:#ad54a3;stroke-width:1.5875;stroke-linecap:round;stroke-linejoin:round;stroke-miterlimit:4;stroke-dasharray:none;stroke-opacity:1"
       d="m 117.96647,195.9563 c -1.07033,-1.78867 1.09928,-5.60487 1.09928,-5.60487 m 0.6005,-24.2619 c 6.46311,-11.98219 19.59225,-7.62698 26.03233,-22.79549 m -26.03233,22.79549 c 5.92769,-25.45368 16.9869,-22.72657 29.04386,-40.68109 m -29.04386,40.68109 c -7.05576,-37.96848 19.36996,-33.81346 30.67317,-55.16005 m -29.92133,128.93727 c 0,0 -0.0491,-8.09774 1.80833,-11.22363 10.62843,-17.88682 23.04322,-33.00226 -2.56017,-62.55359 -2.07395,4.65038 -1.6266,5.66162 -3.87229,9.33359 -6.93972,11.3473 -19.292947,13.45896 4.35551,42.56376 0,0 0.11585,-5.0258 1.98906,-8.52464 8.34984,-15.59621 -0.41292,-19.48331 -3.41649,-29.28557 -0.66377,6.65493 -8.77065,11.98891 -0.81467,24.10492 l 3.0406,-7.16698" />
  </g>
</svg>
